<svg width="216" height="11" viewBox="0 0 216 11" fill="none" xmlns="http://www.w3.org/2000/svg">
<mask id="path-1-inside-1_911_18659" fill="white">
<path fill-rule="evenodd" clip-rule="evenodd" d="M101.27 6C103.169 6.86333 104.492 8.77646 104.5 11C104.5 8.78515 105.804 6.87549 107.685 6H215.5V5H107.73C105.831 4.13667 104.508 2.22354 104.5 0C104.5 2.21485 103.196 4.12451 101.314 5H0.5V6H101.27Z"/>
</mask>
<path fill-rule="evenodd" clip-rule="evenodd" d="M101.27 6C103.169 6.86333 104.492 8.77646 104.5 11C104.5 8.78515 105.804 6.87549 107.685 6H215.5V5H107.73C105.831 4.13667 104.508 2.22354 104.5 0C104.5 2.21485 103.196 4.12451 101.314 5H0.5V6H101.27Z" fill="white"/>
<path d="M104.5 11L103.5 11.0036L105.5 11H104.5ZM101.27 6L101.684 5.08965L101.487 5H101.27V6ZM107.685 6V5H107.464L107.264 5.09338L107.685 6ZM215.5 6V7H216.5V6H215.5ZM215.5 5H216.5V4H215.5V5ZM107.73 5L107.316 5.91035L107.513 6H107.73V5ZM104.5 0L105.5 -0.0036096L103.5 0H104.5ZM101.314 5V6H101.536L101.736 5.90662L101.314 5ZM0.5 5V4H-0.5V5H0.5ZM0.5 6H-0.5V7H0.5V6ZM105.5 10.9964C105.49 8.36871 103.927 6.10913 101.684 5.08965L100.856 6.91035C102.412 7.61753 103.493 9.18422 103.5 11.0036L105.5 10.9964ZM107.264 5.09338C105.042 6.12717 103.5 8.3827 103.5 11H105.5C105.5 9.1876 106.566 7.62381 108.107 6.90662L107.264 5.09338ZM215.5 5H107.685V7H215.5V5ZM214.5 5V6H216.5V5H214.5ZM107.73 6H215.5V4H107.73V6ZM103.5 0.0036096C103.509 2.63129 105.073 4.89088 107.316 5.91035L108.144 4.08965C106.588 3.38247 105.507 1.81578 105.5 -0.0036096L103.5 0.0036096ZM101.736 5.90662C103.958 4.87284 105.5 2.6173 105.5 0H103.5C103.5 1.8124 102.434 3.37619 100.893 4.09338L101.736 5.90662ZM0.5 6H101.314V4H0.5V6ZM1.5 6V5H-0.5V6H1.5ZM101.27 5H0.5V7H101.27V5Z" fill="white" mask="url(#path-1-inside-1_911_18659)"/>
</svg>
