<svg width="24" height="24" viewBox="0 0 24 24" fill="none" xmlns="http://www.w3.org/2000/svg">
<path d="M13.9436 11.7996L11.2484 10.542C11.0132 10.4328 10.82 10.5552 10.82 10.8156V13.1844C10.82 13.4448 11.0132 13.5672 11.2484 13.458L13.9424 12.2004C14.1788 12.09 14.1788 11.91 13.9436 11.7996ZM12.02 0.47998C5.6576 0.47998 0.5 5.63758 0.5 12C0.5 18.3624 5.6576 23.52 12.02 23.52C18.3824 23.52 23.54 18.3624 23.54 12C23.54 5.63758 18.3824 0.47998 12.02 0.47998ZM12.02 16.68C6.1232 16.68 6.02 16.1484 6.02 12C6.02 7.85158 6.1232 7.31998 12.02 7.31998C17.9168 7.31998 18.02 7.85158 18.02 12C18.02 16.1484 17.9168 16.68 12.02 16.68Z" fill="#828387"/>
</svg>
