<svg width="25" height="24" viewBox="0 0 25 24" fill="none" xmlns="http://www.w3.org/2000/svg">
<path fill-rule="evenodd" clip-rule="evenodd" d="M12.5 24C19.1274 24 24.5 18.6274 24.5 12C24.5 5.37258 19.1274 0 12.5 0C5.87258 0 0.5 5.37258 0.5 12C0.5 18.6274 5.87258 24 12.5 24ZM12.5 6C15.8134 6 18.5 8.70284 18.5 12.0362C18.5 15.0498 16.3063 17.547 13.4375 18V13.7816H14.8354L15.1012 12.0362H13.4372V10.9044C13.4372 10.4264 13.6703 9.96129 14.4152 9.96129H15.1721V8.47567C15.1721 8.47567 14.4854 8.35764 13.8288 8.35764C12.4585 8.35764 11.5625 9.19382 11.5625 10.7064V12.0362H10.0387V13.7816H11.5625V17.9995C8.69375 17.5462 6.5 15.049 6.5 12.0362C6.5 8.70284 9.18661 6 12.5 6Z" fill="#828387"/>
</svg>
