<svg width="25" height="24" viewBox="0 0 25 24" fill="none" xmlns="http://www.w3.org/2000/svg">
<path fill-rule="evenodd" clip-rule="evenodd" d="M12.5 24C19.1274 24 24.5 18.6274 24.5 12C24.5 5.37258 19.1274 0 12.5 0C5.87258 0 0.5 5.37258 0.5 12C0.5 18.6274 5.87258 24 12.5 24ZM14.7577 6C14.7575 6.69162 14.9977 7.35975 15.4337 7.88C16.301 8.92667 17.5 8.86667 17.5 8.86667V10.9267C16.5162 10.9284 15.5568 10.6066 14.7577 10.0067V14.2C14.7577 16.3 13.1314 18 11.1288 18C9.2602 18 7.5 16.42 7.5 14.2C7.5 11.92 9.42602 10.1333 11.6263 10.44V12.5467C10.5357 12.1933 9.47704 13.0533 9.47704 14.2C9.47704 15.16 10.2296 15.9333 11.1352 15.9333C11.5634 15.9333 11.9749 15.7595 12.283 15.4486C12.5911 15.1377 12.7718 14.714 12.787 14.2667V6H14.7577Z" fill="#828387"/>
</svg>
