<svg width="19" height="16" viewBox="0 0 19 16" fill="none" xmlns="http://www.w3.org/2000/svg">
<path d="M0.28125 15.4688V11.6875C0.28125 10.4167 0.489583 9.09375 0.90625 7.71875C1.34375 6.32292 1.96875 4.98958 2.78125 3.71875C3.59375 2.42708 4.57292 1.3125 5.71875 0.375L9 2.65625C8.04167 4.03125 7.30208 5.44792 6.78125 6.90625C6.26042 8.34375 6 9.90625 6 11.5938V15.4688H0.28125ZM10.125 15.4688V11.6875C10.125 10.4167 10.3333 9.09375 10.75 7.71875C11.1875 6.32292 11.8125 4.98958 12.625 3.71875C13.4375 2.42708 14.4167 1.3125 15.5625 0.375L18.8438 2.65625C17.8854 4.03125 17.1458 5.44792 16.625 6.90625C16.1042 8.34375 15.8438 9.90625 15.8438 11.5938V15.4688H10.125Z" fill="white"/>
</svg>
