<svg width="101" height="97" viewBox="0 0 101 97" fill="none" xmlns="http://www.w3.org/2000/svg">
<path d="M2.9 96.45C1.9 96.45 1.2 96.1 0.8 95.4C0.4 94.7 0.2 93.95 0.2 93.15C0.3 91.45 0.7 90.5 1.4 90.3C2.1 90.1 2.95 90 3.95 90C6.65 90 8.7 89.45 10.1 88.35C11.5 87.25 12.6 85.8 13.4 84C14.3 82.2 15.15 80.35 15.95 78.45L42.2 16.35C43.2 13.95 43.4 12.15 42.8 10.95C42.2 9.64999 41.2 8.74999 39.8 8.24999C38.4 7.65 36.85 7.2 35.15 6.89999C33.65 6.6 32.65 6.35 32.15 6.14999C31.65 5.84999 31.4 4.94999 31.4 3.44999C31.4 1.75 32 0.849997 33.2 0.749992C34.4 0.549995 35.8 0.449996 37.4 0.449996C41.5 0.449996 45 0.849997 47.9 1.65C50.8 2.44999 53.3 3.99999 55.4 6.29999C57.5 8.49999 59.45 11.85 61.25 16.35L86.45 78.45C87.15 80.15 87.9 81.9 88.7 83.7C89.5 85.5 90.55 87 91.85 88.2C93.25 89.3 95 89.9 97.1 90C98.2 90 99.05 90.1 99.65 90.3C100.35 90.5 100.75 91.45 100.85 93.15C100.85 93.95 100.6 94.7 100.1 95.4C99.7 96.1 99.05 96.45 98.15 96.45C94.95 96.25 92.15 96.1 89.75 96C87.35 96 84.65 96 81.65 96C75.75 96 69.55 96.15 63.05 96.45C62.05 96.45 61.35 96.1 60.95 95.4C60.55 94.7 60.35 93.95 60.35 93.15C60.45 91.45 60.85 90.5 61.55 90.3C62.25 90.1 63.1 90 64.1 90C69 90 71.65 89.1 72.05 87.3C72.55 85.5 72.1 82.55 70.7 78.45L65.6 66H28.55C27.05 69.8 25.95 72.55 25.25 74.25C24.65 75.95 24.25 77.05 24.05 77.55C23.95 78.05 23.85 78.35 23.75 78.45C22.65 81.85 22.05 84.4 21.95 86.1C21.95 87.7 22.75 88.75 24.35 89.25C26.05 89.75 28.85 90 32.75 90C33.85 90 34.7 90.1 35.3 90.3C36 90.5 36.4 91.45 36.5 93.15C36.5 93.95 36.25 94.7 35.75 95.4C35.35 96.1 34.7 96.45 33.8 96.45C30.6 96.25 27.8 96.1 25.4 96C23.1 96 20.45 96 17.45 96C15.45 96 13.75 96 12.35 96C11.05 96.1 9.7 96.15 8.3 96.15C6.9 96.25 5.1 96.35 2.9 96.45ZM31.4 59.55H62.9L47.75 21H47.3L31.4 59.55Z" fill="#ECECEC"/>
</svg>
