<svg width="25" height="24" viewBox="0 0 25 24" fill="none" xmlns="http://www.w3.org/2000/svg">
<path fill-rule="evenodd" clip-rule="evenodd" d="M12.5 24C19.1274 24 24.5 18.6274 24.5 12C24.5 5.37258 19.1274 0 12.5 0C5.87258 0 0.5 5.37258 0.5 12C0.5 18.6274 5.87258 24 12.5 24ZM14.1908 5.77386C13.7531 5.76338 13.3152 5.75898 12.8774 5.76066L11.6438 5.76006C11.2062 5.75901 10.7685 5.76401 10.331 5.77506L10.2146 5.77806L9.7874 5.79606C9.1484 5.82606 8.7134 5.92686 8.3306 6.07506C7.93038 6.22601 7.56794 6.46251 7.2686 6.76806C6.96258 7.06713 6.72582 7.42963 6.575 7.83006C6.4268 8.21286 6.326 8.64786 6.296 9.28686C6.2888 9.44646 6.2828 9.57966 6.278 9.71406L6.2738 9.83046C6.26333 10.268 6.25893 10.7056 6.2606 11.1433V12.3769C6.25954 12.8147 6.26454 13.2526 6.2756 13.6903L6.2786 13.8067C6.28392 13.9491 6.28992 14.0915 6.2966 14.2339C6.3266 14.8723 6.4274 15.3079 6.5756 15.6901C6.72633 16.0906 6.96263 16.4534 7.268 16.7533C7.56754 17.0586 7.93021 17.2947 8.3306 17.4451C8.7134 17.5927 9.149 17.6947 9.7874 17.7247C9.92976 17.7315 10.0722 17.7375 10.2146 17.7427L10.331 17.7463C10.7687 17.7569 11.2066 17.7615 11.6444 17.7601H12.4298L12.8774 17.7595C13.3152 17.7609 13.7531 17.7563 14.1908 17.7457L14.3072 17.7421C14.4374 17.7374 14.566 17.7316 14.7196 17.7247L14.7344 17.7241C15.3728 17.6941 15.8084 17.5933 16.1906 17.4451C16.591 17.2943 16.9538 17.0583 17.2538 16.7533C17.5593 16.4536 17.7954 16.0907 17.9456 15.6901C18.0932 15.3079 18.1952 14.8723 18.2252 14.2339L18.2259 14.219C18.2328 14.0654 18.2386 13.9369 18.2432 13.8067L18.2468 13.6903C18.2575 13.2525 18.2621 12.8147 18.2606 12.3769V11.5909L18.26 11.1433C18.2615 10.7056 18.2569 10.268 18.2462 9.83046L18.2426 9.71406C18.2378 9.57966 18.2318 9.44646 18.2246 9.28686C18.1946 8.64846 18.0938 8.21226 17.9456 7.83006C17.7949 7.42983 17.5588 7.06723 17.2538 6.76746C16.9202 6.43386 16.5866 6.22746 16.1906 6.07506C15.8084 5.92686 15.3728 5.82606 14.7344 5.79606L14.7196 5.7954C14.566 5.78849 14.4374 5.78271 14.3072 5.77806L14.1908 5.77386ZM11.0996 8.9767C11.4685 8.82848 11.8631 8.75504 12.2606 8.76066C13.0562 8.76066 13.8193 9.07613 14.3819 9.63874C14.9445 10.2014 15.2606 10.9644 15.2606 11.7601C15.2606 12.5557 14.9445 13.3188 14.3819 13.8814C13.8193 14.444 13.0562 14.7601 12.2606 14.7601C11.8631 14.7657 11.4685 14.6922 11.0996 14.544C10.7307 14.3958 10.395 14.1757 10.1119 13.8966C9.82883 13.6175 9.60404 13.2849 9.45061 12.9182C9.29718 12.5515 9.21817 12.1579 9.21817 11.7604C9.21817 11.3628 9.29718 10.9693 9.45061 10.6025C9.60404 10.2358 9.82883 9.9032 10.1119 9.62409C10.395 9.34499 10.7307 9.12493 11.0996 8.9767ZM12.9595 10.088C12.7373 9.99954 12.4997 9.95626 12.2606 9.96066L12.2612 9.96006C11.7838 9.96006 11.326 10.1497 10.9884 10.4873C10.6508 10.8248 10.4612 11.2827 10.4612 11.7601C10.4612 12.2375 10.6508 12.6953 10.9884 13.0329C11.326 13.3704 11.7838 13.5601 12.2612 13.5601C12.5003 13.5644 12.7379 13.521 12.96 13.4325C13.1822 13.344 13.3845 13.2121 13.5551 13.0445C13.7257 12.8769 13.8612 12.677 13.9537 12.4565C14.0462 12.236 14.0938 11.9992 14.0938 11.7601C14.0937 11.5209 14.046 11.2842 13.9535 11.0637C13.8609 10.8432 13.7253 10.6433 13.5547 10.4758C13.384 10.3083 13.1817 10.1764 12.9595 10.088ZM14.8998 8.09044C15.034 7.95075 15.217 7.86841 15.4106 7.86066V7.85946C15.6095 7.85946 15.8003 7.93848 15.9409 8.07913C16.0816 8.21978 16.1606 8.41055 16.1606 8.60946C16.1606 8.80837 16.0816 8.99914 15.9409 9.13979C15.8003 9.28044 15.6095 9.35946 15.4106 9.35946C15.217 9.35171 15.034 9.26937 14.8998 9.12968C14.7656 8.98999 14.6906 8.80378 14.6906 8.61006C14.6906 8.41634 14.7656 8.23014 14.8998 8.09044Z" fill="#828387"/>
</svg>
