<svg width="38" height="64" viewBox="0 0 38 64" fill="none" xmlns="http://www.w3.org/2000/svg">
<path d="M19 35.1667C25.5392 35.1667 30.875 29.8308 30.875 23.2917V15.375C30.875 8.83583 25.5392 3.5 19 3.5C12.4608 3.5 7.125 8.83583 7.125 15.375V23.2917C7.125 29.8308 12.4608 35.1667 19 35.1667Z" stroke="white" stroke-width="1.5" stroke-linecap="round" stroke-linejoin="round"/>
<path d="M19 17.7499C17.6858 17.7499 16.625 16.6891 16.625 15.3749V12.2083C16.625 10.8941 17.6858 9.83325 19 9.83325C20.2983 9.83325 21.375 10.8941 21.375 12.2083V15.3749C21.375 16.6891 20.2983 17.7499 19 17.7499Z" stroke="white" stroke-width="1.5" stroke-linecap="round" stroke-linejoin="round"/>
<path d="M19 9.83333V3.5" stroke="white" stroke-width="1.5" stroke-linecap="round" stroke-linejoin="round"/>
<path d="M11.083 47.833L18.9997 55.7497L26.9163 47.833" stroke="white" stroke-width="1.5" stroke-linecap="round" stroke-linejoin="round"/>
</svg>
